# xmcd
#
# Track frame offsets:
#	182
#	11722
#	26572
#	40047
#	50610
#	63065
#	73595
#	79522
#	90047
#	100610
#	106307
#	109910
#	121042
#	125280
#	134512
#	143597
#	153500
#	162392
#	171857
#	183010
#	192517
#
# Disc length: 2690 seconds
#
# Revision: 0
# Processed by: cddbd v1.4PL0 Copyright (c) Steve Scherf et al.
# Submitted via: dBpowerAMP V4.0
#
DISCID=060a8015
DTITLE=Loretta Lynn - Daughter Of Country
DYEAR=1900
DGENRE=Country
TTITLE0=Hey Loretta
TTITLE1=Coal Miner's Daughter
TTITLE2=Let Your Love Flow
TTITLE3=You're Looking At Country
TTITLE4=Me And Bobby McGee
TTITLE5=One's On The Way
TTITLE6=The Pill
TTITLE7=Out Of My Head and Back In My Bed
TTITLE8=Somebody Somewhere
TTITLE9=I Fall To Pieces
TTITLE10=Walkin' After Midnight
TTITLE11=Crazy
TTITLE12=Back In Baby's Arms
TTITLE13=She's Got You
TTITLE14=They Don't Make 'Em Like My Daddy
TTITLE15=You Ain't Woman Enough
TTITLE16=We've Come A Long Way Baby
TTITLE17=Your Squaw Is On The Warpath
TTITLE18=Spring Fever
TTITLE19=Fist City
TTITLE20=Y'All Come
EXTD=
EXTT0=
EXTT1=
EXTT2=
EXTT3=
EXTT4=
EXTT5=
EXTT6=
EXTT7=
EXTT8=
EXTT9=
EXTT10=
EXTT11=
EXTT12=
EXTT13=
EXTT14=
EXTT15=
EXTT16=
EXTT17=
EXTT18=
EXTT19=
EXTT20=
PLAYORDER=
